<?xml version="1.0" encoding="iso-8859-1"?>
<!-- Generator: Adobe Illustrator 19.0.0, SVG Export Plug-In . SVG Version: 6.00 Build 0)  -->
<svg version="1.1" id="Capa_1" xmlns="http://www.w3.org/2000/svg" xmlns:xlink="http://www.w3.org/1999/xlink" x="0px" y="0px"
	 viewBox="0 0 488 488" style="enable-background:new 0 0 488 488;" xml:space="preserve">
<path style="fill:#00F2A9;" d="M36,488h416c8.8,0,16-7.2,16-16v-80H20v80C20,480.8,27.2,488,36,488z"/>
<path style="fill:#322153;" d="M36,464h416c13.232,0,24-10.768,24-24v-80V24c0-13.232-10.768-24-24-24H36C22.768,0,12,10.768,12,24
	v336v80C12,453.232,22.768,464,36,464z M460,440c0,4.416-3.584,8-8,8H36c-4.416,0-8-3.584-8-8v-72h69.312H390.68H460V440z M156,168
	c0-48.52,39.48-88,88-88s88,39.48,88,88s-39.48,88-88,88S156,216.52,156,168z M377.856,352H110.144
	c26.528-48.976,77.808-79.992,133.856-79.992S351.328,303.024,377.856,352z M28,24c0-4.416,3.584-8,8-8h416c4.416,0,8,3.584,8,8v328
	h-64.32c-21.44-44.792-61.04-77.232-107.552-89.968C323.44,245.392,348,209.552,348,168c0-57.344-46.656-104-104-104
	s-104,46.656-104,104c0,41.552,24.56,77.392,59.872,94.032c-46.52,12.736-86.12,45.176-107.56,89.968H28V24z"/>
<g>
</g>
<g>
</g>
<g>
</g>
<g>
</g>
<g>
</g>
<g>
</g>
<g>
</g>
<g>
</g>
<g>
</g>
<g>
</g>
<g>
</g>
<g>
</g>
<g>
</g>
<g>
</g>
<g>
</g>
</svg>
