<svg xmlns="http://www.w3.org/2000/svg" width="30" height="30" viewBox="0 0 30 30">
  <g id="insta" transform="translate(284.292 -41.708)">
    <path id="Path_10" data-name="Path 10" d="M87.909,63.708h-18.4a5.8,5.8,0,0,0-5.8,5.8V87.911a5.8,5.8,0,0,0,5.8,5.8H87.911a5.8,5.8,0,0,0,5.8-5.8V69.505A5.8,5.8,0,0,0,87.909,63.708Zm1.826,3.354.657,0V72.04l-5.015.017-.017-4.979ZM78.708,73.689c4.161,0,5.019,3.906,5.019,5.02a5.019,5.019,0,0,1-10.038,0C73.687,77.595,74.547,73.689,78.708,73.689ZM90.42,87.548a2.877,2.877,0,0,1-2.876,2.874H69.815a2.877,2.877,0,0,1-2.876-2.874V75.369H71.1a9.561,9.561,0,0,0-.6,3.341,8.2,8.2,0,1,0,16.4,0,9.6,9.6,0,0,0-.6-3.341h4.116V87.548Z" transform="translate(-348 -22)" fill="#ccc5c2"/>
  </g>
</svg>
