<svg xmlns="http://www.w3.org/2000/svg" width="38.037" height="30" viewBox="0 0 38.037 30">
  <g id="twitter" transform="translate(345.292 -69.988)">
    <path id="Path_12" data-name="Path 12" d="M101.745,85.537a15.946,15.946,0,0,1-4.483,1.195,7.636,7.636,0,0,0,3.433-4.193,15.822,15.822,0,0,1-4.958,1.839,7.905,7.905,0,0,0-5.7-2.39,7.689,7.689,0,0,0-7.8,7.571,7.35,7.35,0,0,0,.2,1.727,22.384,22.384,0,0,1-16.084-7.914A7.356,7.356,0,0,0,65.3,87.18a7.51,7.51,0,0,0,3.471,6.3,7.935,7.935,0,0,1-3.536-.949v.1a7.64,7.64,0,0,0,6.26,7.427,8.07,8.07,0,0,1-2.056.266,7.869,7.869,0,0,1-1.467-.136,7.783,7.783,0,0,0,7.291,5.26,15.954,15.954,0,0,1-9.693,3.242,16.408,16.408,0,0,1-1.863-.106,22.584,22.584,0,0,0,11.965,3.4,21.715,21.715,0,0,0,22.2-21.552l-.022-.981A15.574,15.574,0,0,0,101.745,85.537Z" transform="translate(-409 -12)" fill="#ccc5c2"/>
  </g>
</svg>
